<?xml version="1.0" standalone="no"?>
<!DOCTYPE svg PUBLIC "-//W3C//DTD SVG 20010904//EN"
 "http://www.w3.org/TR/2001/REC-SVG-20010904/DTD/svg10.dtd">
<svg version="1.0" xmlns="http://www.w3.org/2000/svg"
 width="960.000000pt" height="1280.000000pt" viewBox="0 0 960.000000 1280.000000"
 preserveAspectRatio="xMidYMid meet">

<g transform="translate(0.000000,1280.000000) scale(0.100000,-0.100000)"
fill="#000000" stroke="none">
<path d="M0 8888 c0 -2152 3 -3923 6 -3936 4 -12 12 -22 18 -22 18 0 42 -56
61 -140 0 -3 9 -21 20 -40 11 -19 18 -38 17 -42 -1 -5 2 -8 7 -8 5 0 15 -26
22 -57 7 -32 15 -60 19 -63 3 -3 12 -30 19 -60 7 -30 19 -62 26 -70 8 -10 12
-44 10 -102 -1 -48 1 -86 4 -83 4 2 18 -20 31 -48 13 -29 34 -63 46 -77 28
-31 45 -170 24 -195 -7 -8 -16 -12 -21 -9 -15 9 -10 -13 6 -26 17 -14 21 -35
5 -25 -6 4 -10 -5 -10 -20 0 -20 -7 -29 -30 -38 -19 -7 -33 -22 -40 -42 -20
-58 -57 -103 -92 -110 -17 -4 -40 -17 -49 -29 -10 -12 -36 -28 -58 -36 l-41
-13 0 -469 c0 -472 0 -474 33 -469 4 0 7 -24 7 -54 0 -54 1 -56 30 -61 16 -4
30 -12 30 -18 0 -6 13 -17 30 -23 28 -11 29 -13 27 -72 -2 -64 11 -84 40 -60
11 9 17 8 28 -7 25 -33 30 -87 15 -159 -1 -5 -2 -24 -1 -42 1 -29 4 -32 33
-31 18 1 34 -4 36 -10 2 -7 8 -10 13 -6 13 8 50 -6 44 -17 -4 -5 0 -9 9 -9 8
0 17 -13 21 -30 4 -16 11 -30 17 -30 14 0 78 -62 78 -76 0 -6 -11 -32 -25 -57
-13 -26 -22 -55 -19 -64 5 -16 4 -16 -6 -3 -9 12 -10 7 -5 -23 7 -41 -11 -53
-21 -13 -3 14 -12 27 -20 30 -8 3 -14 13 -14 23 0 9 -18 34 -40 54 -22 21 -40
42 -40 48 0 6 -4 11 -10 11 -5 0 -10 8 -10 18 0 10 -24 41 -52 69 -70 67 -79
79 -72 96 6 17 -21 47 -42 47 -16 0 -18 -9 -4 -30 5 -9 5 -19 -1 -26 -8 -10
-19 -3 -45 25 -19 21 -34 42 -34 47 0 5 -7 18 -15 28 -13 18 -15 -114 -15
-1107 l0 -1127 2785 0 c2646 0 2785 1 2785 18 1 23 31 58 58 66 15 5 22 15 22
32 0 19 5 24 25 24 14 0 28 7 31 15 4 8 15 15 26 15 14 0 18 5 13 19 -6 21 13
70 35 88 8 7 11 13 6 13 -5 0 -1 9 9 20 10 11 13 20 7 20 -7 0 -12 5 -12 10 0
6 5 10 11 10 6 0 17 7 25 15 14 13 13 15 -3 15 -12 0 -19 8 -20 20 -1 11 4 20
13 20 8 0 14 6 14 14 0 16 27 29 42 20 7 -4 4 -10 -6 -16 -16 -9 -16 -11 -1
-22 15 -11 16 -15 4 -36 -11 -18 -11 -24 -1 -27 6 -3 12 -16 12 -30 0 -23 1
-23 16 -8 13 12 14 19 5 28 -12 12 -15 57 -3 58 4 0 17 2 29 5 27 5 39 -12 22
-32 -8 -9 -11 -39 -10 -78 2 -48 -1 -65 -13 -69 -13 -5 -13 -13 0 -68 12 -50
12 -64 2 -71 -7 -4 -9 -8 -5 -8 4 0 3 -8 -2 -18 -6 -10 -7 -28 -4 -40 5 -20
12 -22 74 -22 38 0 69 3 70 8 0 4 2 19 3 34 1 15 10 34 21 43 17 12 18 16 5
24 -10 7 -14 31 -15 88 0 43 -4 84 -9 91 -5 8 -4 18 2 24 7 7 7 19 1 36 -15
38 -18 85 -8 104 6 11 5 26 -2 42 -10 21 -9 30 6 52 9 14 12 23 6 20 -7 -5
-11 3 -11 22 0 16 -7 36 -16 43 -9 7 -20 24 -25 37 -8 20 -14 23 -36 17 -15
-3 -40 -17 -56 -31 -34 -29 -51 -31 -42 -5 3 11 1 22 -4 25 -12 8 -33 -28 -24
-38 4 -4 -5 -17 -20 -29 -19 -16 -32 -41 -44 -92 -19 -72 -20 -76 -65 -124
-17 -19 -29 -25 -32 -18 -3 7 -4 -6 -2 -28 2 -30 -3 -47 -20 -68 -13 -15 -21
-34 -18 -42 5 -11 -1 -15 -21 -15 -18 0 -29 -6 -32 -20 -4 -14 -14 -20 -34
-20 -15 0 -31 5 -34 10 -4 7 -12 7 -25 0 -24 -13 -33 10 -19 47 12 31 3 83
-14 83 -7 -1 -28 -14 -47 -30 -19 -17 -42 -30 -52 -30 -9 0 -20 -4 -23 -10 -9
-14 -48 -13 -63 2 -8 8 -12 8 -12 1 0 -13 -46 -26 -60 -18 -12 8 20 54 38 55
6 0 12 5 12 12 0 6 8 20 17 30 14 16 15 24 6 48 -10 26 -9 30 9 36 11 3 25 1
31 -5 8 -8 8 -11 -1 -11 -7 0 -12 -9 -12 -20 0 -21 16 -26 39 -11 9 6 10 11 3
15 -18 11 -3 33 21 32 13 -1 22 5 22 14 0 10 -8 14 -27 12 -38 -4 -26 27 14
35 20 4 27 10 24 22 -6 18 25 61 44 61 6 0 10 6 9 12 -5 41 2 78 16 78 9 0 12
-6 9 -15 -7 -17 7 -20 23 -4 7 7 8 23 2 47 -14 60 -11 79 12 85 23 6 17 27 -7
27 -8 0 -14 5 -14 11 0 5 5 7 10 4 12 -8 13 27 1 41 -11 11 4 54 19 54 5 0 10
-5 10 -11 0 -8 5 -7 16 2 13 10 17 10 25 -2 7 -10 9 -4 7 21 -2 26 -7 35 -20
34 -26 -2 -22 35 5 46 12 5 31 16 41 25 19 14 19 15 2 28 -15 11 -17 17 -7 35
6 12 18 22 25 22 7 0 25 11 40 24 27 22 27 25 15 65 -13 44 -8 61 14 43 13
-11 37 1 37 19 0 9 -53 5 -69 -5 -6 -4 -18 -3 -25 3 -20 16 -50 3 -35 -15 9
-11 7 -15 -7 -21 -11 -4 -25 -15 -32 -25 -7 -10 -20 -18 -28 -18 -14 0 -18
-11 -15 -38 1 -6 -3 -12 -8 -12 -6 0 -17 24 -26 52 -14 47 -14 54 0 64 20 15
19 24 -4 24 -25 0 -38 20 -14 21 12 0 7 6 -15 17 -27 13 -37 14 -53 4 -14 -9
-19 -9 -19 -1 0 8 -4 8 -14 0 -12 -10 -17 -8 -25 8 -6 11 -8 27 -5 35 7 19
-37 39 -63 29 -13 -5 -15 -2 -10 18 4 13 7 27 7 30 0 4 14 12 31 19 31 13 31
13 8 25 -15 9 -18 14 -8 17 16 5 69 -12 87 -29 9 -8 20 -9 36 -3 21 8 25 5 30
-16 7 -27 33 -32 43 -8 4 10 8 12 12 5 5 -8 16 -7 37 0 l30 12 -27 28 c-15 16
-32 29 -39 29 -6 0 -11 10 -10 23 4 42 0 57 -15 57 -17 0 -20 -25 -5 -35 13
-8 7 -48 -8 -53 -7 -2 -12 2 -12 10 0 7 -9 24 -20 38 -16 20 -20 22 -20 8 0
-10 -4 -18 -10 -18 -13 0 -13 17 1 26 6 3 9 17 6 30 -2 14 0 27 4 30 13 8 -1
56 -24 82 l-20 22 21 0 c15 0 24 10 33 35 7 19 16 35 21 35 4 0 5 -7 2 -15 -4
-8 -1 -15 5 -15 6 0 11 6 11 13 0 7 9 13 20 13 11 0 20 -6 20 -14 0 -7 4 -10
10 -7 5 3 10 21 10 39 0 30 2 32 38 34 30 2 34 0 19 -9 -24 -14 -14 -43 27
-80 39 -35 60 -38 50 -6 -4 12 -8 30 -8 40 0 10 -7 17 -16 16 -59 -5 -84 14
-31 24 16 3 41 9 56 13 26 6 28 5 22 -16 -6 -23 14 -64 41 -87 13 -10 13 -18
4 -38 -7 -14 -12 -32 -12 -40 0 -20 34 -19 50 0 7 8 20 15 29 15 9 0 22 5 29
12 9 9 13 7 18 -5 3 -9 4 -24 0 -32 -8 -21 4 -46 18 -38 6 4 5 -1 -3 -10 -9
-12 -11 -30 -7 -62 7 -42 5 -46 -18 -55 -14 -5 -26 -16 -26 -24 0 -15 29 -44
31 -30 1 5 2 15 3 21 2 26 22 13 34 -23 7 -21 18 -41 23 -45 15 -9 -4 -74 -21
-74 -7 0 -15 -6 -18 -12 -2 -8 6 -13 22 -13 21 0 26 -5 26 -24 0 -14 4 -27 9
-30 16 -10 19 -97 5 -143 -8 -25 -14 -65 -15 -87 0 -35 -2 -38 -9 -18 -5 12
-17 22 -26 22 -15 0 -16 -9 -10 -82 4 -45 9 -84 11 -86 2 -2 13 -1 26 3 12 4
17 10 11 14 -21 13 -18 61 3 61 10 0 15 -10 15 -30 0 -17 6 -33 14 -36 8 -3
24 -25 35 -50 14 -28 28 -44 39 -44 10 0 24 -6 31 -12 11 -11 12 -7 6 22 -4
19 -13 38 -19 42 -7 5 -5 8 7 8 23 0 22 31 -2 37 -19 5 -35 39 -25 55 3 5 14
6 24 3 13 -4 20 0 25 14 10 33 51 23 81 -20 14 -21 32 -40 40 -43 11 -4 13
-15 8 -41 -5 -28 -3 -35 10 -35 24 0 19 -23 -9 -50 -31 -29 -33 -60 -5 -60 16
0 20 7 20 35 0 34 1 34 20 18 24 -20 26 -38 5 -29 -9 3 -15 0 -15 -9 0 -8 5
-15 12 -15 6 0 3 -9 -7 -20 -23 -26 -15 -35 11 -12 17 16 64 25 64 12 -1 -16
-20 -32 -34 -27 -19 7 -21 -4 -4 -21 9 -9 8 -16 -5 -30 -9 -10 -17 -26 -17
-35 0 -9 -4 -17 -10 -17 -5 0 -10 5 -10 11 0 6 -6 7 -12 2 -7 -4 -5 5 4 20 22
33 23 47 1 47 -9 0 -25 8 -36 17 -18 17 -19 17 -33 -2 -20 -27 -18 -48 5 -40
11 3 21 0 24 -9 8 -20 -4 -28 -20 -14 -20 16 -41 -5 -24 -25 6 -8 9 -22 5 -31
-3 -9 -1 -16 5 -16 6 0 11 -7 11 -15 0 -9 7 -18 15 -21 8 -4 12 -10 9 -15 -3
-5 -6 -37 -8 -71 -3 -46 1 -68 12 -80 8 -10 17 -40 20 -68 2 -27 8 -50 13 -50
19 0 8 -28 -13 -34 l-23 -6 23 -20 c13 -10 23 -21 22 -24 0 -4 0 -22 0 -41 l0
-35 105 0 c63 0 105 4 105 10 0 6 7 10 15 10 20 0 19 10 -2 26 -17 13 -17 13
2 14 14 0 24 -10 32 -30 10 -26 16 -30 48 -30 32 0 36 2 30 21 -6 18 -4 20 14
14 15 -5 21 -2 21 9 0 9 -6 16 -14 16 -15 0 -42 36 -48 65 -2 11 -10 19 -16
17 -9 -1 -10 6 -6 23 3 14 1 32 -6 40 -6 8 -9 19 -6 24 4 5 2 12 -4 16 -13 8
-13 45 0 45 6 0 10 7 10 15 0 9 7 18 15 21 19 8 19 34 0 34 -8 0 -15 5 -15 10
0 6 21 10 46 10 37 0 47 -4 51 -20 9 -33 19 -14 15 26 -3 25 -10 38 -23 41
-11 3 -19 10 -19 15 0 6 7 7 16 4 9 -3 20 -6 25 -6 5 0 9 -7 9 -15 0 -8 9 -15
19 -15 11 0 21 -5 23 -11 2 -5 11 -7 21 -4 21 9 22 43 3 80 -14 27 -12 55 5
55 5 0 9 14 9 30 0 17 4 30 9 30 5 0 13 10 17 22 9 30 31 51 39 38 11 -18 27
1 21 25 -4 14 0 28 10 36 8 7 13 21 11 30 -3 10 4 26 14 35 10 9 19 14 19 10
0 -4 6 -1 14 6 10 9 11 15 3 20 -9 5 -9 15 -1 37 l12 29 -37 -4 c-25 -3 -32
-1 -21 5 11 8 12 15 3 33 -20 41 -22 57 -10 62 7 2 4 5 -5 5 -10 1 -18 5 -18
10 0 4 11 6 24 4 18 -4 26 0 31 17 4 12 2 27 -4 33 -13 13 -15 57 -3 57 4 0
13 -5 20 -12 15 -15 16 -3 2 23 -6 10 -17 19 -25 19 -17 0 -38 -36 -30 -51 4
-5 1 -16 -5 -24 -6 -8 -9 -19 -5 -25 4 -6 1 -17 -5 -25 -7 -8 -10 -22 -6 -30
3 -9 0 -15 -9 -15 -8 0 -15 -4 -15 -9 0 -17 -55 -19 -84 -4 -37 19 -46 29 -70
76 -11 21 -28 43 -38 48 -21 11 -17 45 7 64 19 16 5 154 -18 166 -22 13 -21
25 4 52 11 12 18 30 15 41 -3 11 5 28 23 45 15 14 33 38 41 54 12 24 19 27 62
27 34 0 50 -5 54 -15 4 -8 12 -15 20 -15 8 0 14 -4 14 -10 0 -5 5 -10 11 -10
7 0 18 -8 25 -17 12 -17 13 -17 14 3 0 14 -8 24 -21 27 -12 3 -19 10 -16 14 3
5 -7 17 -23 26 -38 23 -80 74 -80 98 0 10 -4 19 -10 19 -5 0 -10 6 -10 14 0 8
-9 18 -20 21 -11 3 -20 11 -20 16 0 5 -6 9 -14 9 -8 0 -17 7 -20 16 -4 9 -13
14 -21 10 -17 -6 -55 22 -55 41 0 7 -4 13 -8 13 -5 0 -14 11 -20 24 -6 15 -23
27 -41 31 -29 6 -44 25 -21 25 6 0 10 7 10 15 0 8 5 15 10 15 6 0 10 5 10 10
0 6 -7 10 -15 10 -8 0 -15 7 -15 15 0 9 -6 18 -14 21 -8 3 -12 12 -9 20 3 8 0
14 -7 14 -9 0 -8 7 4 24 17 27 12 56 -10 56 -8 0 -14 5 -14 10 0 6 -7 10 -15
10 -8 0 -15 -8 -15 -17 0 -10 -3 -29 -7 -42 -5 -20 -3 -23 13 -19 17 4 20 0
21 -28 1 -38 -14 -47 -19 -12 -2 12 -14 28 -28 35 -30 15 -44 57 -24 74 8 7
11 21 8 34 -3 13 1 28 10 38 13 12 13 16 2 20 -18 7 -13 147 8 204 15 42 14
43 -10 62 -13 10 -24 23 -24 28 0 6 -12 23 -26 38 -19 21 -24 35 -20 54 18 80
18 121 0 173 -10 29 -21 55 -24 58 -33 33 -61 150 -41 173 9 12 18 11 56 -8
36 -19 52 -21 81 -15 57 13 70 34 88 145 9 55 22 105 29 111 7 6 34 19 60 27
46 15 48 15 42 -1 -4 -9 -16 -39 -26 -65 -11 -27 -41 -77 -68 -112 -58 -75
-71 -126 -47 -177 10 -21 28 -38 48 -46 30 -11 33 -10 107 57 150 137 194 194
259 337 35 78 52 151 52 228 0 28 7 92 16 141 19 109 14 207 -15 280 -6 17
-23 62 -37 100 -14 39 -32 86 -39 105 -7 19 -20 73 -30 120 -9 47 -25 110 -35
140 -10 30 -26 91 -35 135 -8 44 -27 105 -42 135 -57 122 -89 181 -113 207
-23 25 -25 26 -29 8 -2 -10 -10 -30 -18 -42 -9 -13 -13 -26 -9 -30 3 -3 1 -11
-4 -18 -5 -6 -11 -21 -13 -33 -2 -12 -6 -25 -10 -28 -4 -4 -7 -23 -8 -43 0
-20 -8 -60 -18 -89 -14 -44 -19 -51 -29 -39 -7 7 -9 17 -5 20 3 4 1 7 -5 7 -7
0 -12 8 -12 18 0 10 -3 22 -7 25 -17 18 -45 118 -45 164 0 29 -4 55 -9 59 -5
3 -7 8 -5 12 2 4 0 32 -5 62 -5 30 -11 82 -14 115 -3 33 -12 99 -20 148 -8 48
-15 101 -15 117 0 33 -23 41 -38 14 -13 -23 -46 -13 -50 14 -4 28 -39 49 -55
33 -13 -13 -40 -15 -32 -2 3 6 -10 17 -30 26 -31 15 -33 19 -23 39 10 19 10
20 -5 7 -15 -12 -17 -11 -17 3 0 9 7 28 16 41 13 20 14 28 4 40 -9 11 -9 15
-1 15 6 0 19 15 28 34 15 32 15 37 -1 69 -9 19 -16 40 -16 46 0 6 -6 11 -12
12 -7 1 -2 4 12 8 14 5 33 4 42 -1 12 -6 20 -3 27 10 15 28 -4 41 -52 35 -35
-5 -40 -3 -29 8 19 20 14 46 -12 67 -13 10 -26 32 -28 48 l-4 29 -14 -30 c-15
-31 -28 -45 -44 -45 -5 0 -3 7 4 15 12 15 10 17 -20 19 -9 1 -16 13 -18 29 -4
30 -10 32 -47 15 -24 -11 -29 -9 -44 10 -14 19 -22 21 -64 16 -50 -7 -78 -27
-60 -45 17 -17 -12 -120 -40 -140 -5 -4 7 -23 27 -42 20 -20 36 -41 36 -47 0
-6 5 -8 11 -5 7 5 8 -12 3 -55 -6 -54 -4 -63 15 -81 14 -13 21 -15 22 -7 0 7
5 3 11 -9 6 -13 17 -23 25 -23 8 0 12 -4 9 -9 -3 -4 5 -6 17 -4 30 5 47 -9 51
-40 1 -15 6 -30 9 -34 4 -3 7 -29 7 -56 0 -42 -5 -54 -34 -83 -25 -25 -35 -45
-40 -83 -4 -28 -11 -53 -16 -56 -11 -7 -10 -85 1 -85 5 0 7 -21 4 -47 -4 -27
-6 -56 -6 -65 0 -10 -4 -20 -10 -23 -5 -4 -9 -17 -9 -29 0 -13 -10 -31 -23
-40 -15 -12 -22 -27 -21 -44 3 -42 7 -53 32 -80 19 -21 21 -33 17 -74 -9 -71
-21 -97 -52 -109 -38 -14 -63 -38 -63 -61 0 -19 -16 -23 -39 -9 -12 8 -13 16
-4 44 8 25 8 38 0 46 -8 8 -7 11 2 11 7 0 9 4 6 10 -6 9 1 12 23 9 4 -1 6 -5
5 -9 -4 -14 22 -18 39 -6 21 16 33 62 18 71 -6 4 -29 -3 -52 -15 l-41 -21 8
73 c4 40 9 125 11 188 2 63 6 121 9 128 3 8 -1 22 -9 33 -8 12 -12 35 -9 60 3
22 0 46 -6 53 -6 7 -10 28 -8 47 2 19 -3 45 -10 58 -6 13 -9 38 -6 54 4 18 1
32 -7 37 -9 6 -9 13 -1 28 15 27 14 43 -1 41 -35 -6 -58 30 -63 93 0 3 -3 10
-7 14 -5 4 -8 15 -8 24 0 10 -6 22 -13 28 -7 6 -14 28 -15 49 -2 20 -8 40 -13
44 -6 3 -11 12 -13 20 -1 8 -10 31 -19 53 -23 51 -22 53 18 67 19 7 35 16 35
21 0 16 -39 28 -63 19 -20 -8 -28 -4 -53 25 -16 18 -32 34 -35 34 -11 0 -76
68 -82 85 -4 8 -22 21 -41 29 -20 8 -47 25 -60 38 -14 13 -32 28 -40 35 -12
10 -12 19 -4 48 6 19 15 35 20 35 11 0 -1 42 -14 51 -5 3 -8 30 -6 59 2 41 8
56 23 64 58 32 73 47 68 66 -3 11 0 27 7 35 17 20 -35 68 -66 61 -20 -5 -22
-1 -28 62 -12 115 -13 176 -3 202 13 31 17 61 7 55 -21 -13 -70 115 -70 182 0
24 -4 43 -9 43 -11 0 -30 144 -19 148 4 2 6 8 2 13 -3 5 -1 9 4 9 14 0 32 161
32 282 0 99 3 114 39 215 22 59 48 126 59 148 29 59 72 185 72 212 0 49 -43
155 -72 176 -15 11 -28 27 -28 34 0 7 -11 13 -24 13 -15 0 -33 11 -45 27 l-21
26 20 22 c26 28 26 39 -1 25 -31 -17 -32 -8 -7 40 20 37 126 130 149 130 3 0
9 14 12 30 4 17 12 30 18 30 18 0 89 73 89 91 0 8 5 20 11 26 5 5 12 28 15 49
8 70 51 134 90 134 8 0 13 4 9 9 -3 5 -1 12 5 16 5 3 10 14 10 23 0 10 10 22
23 27 12 6 21 16 20 23 -2 6 11 25 27 41 17 15 30 31 30 33 0 3 -16 9 -35 12
-31 6 -34 10 -29 32 3 13 1 31 -6 38 -16 20 1 49 46 80 l36 24 -36 -1 c-23 -1
-32 -4 -23 -10 9 -6 8 -8 -2 -5 -8 3 -17 19 -19 37 -3 30 -1 32 18 26 19 -6
21 -4 16 13 -4 13 -1 25 9 34 9 7 26 23 37 36 12 12 28 22 35 22 8 0 13 11 13
28 0 23 -7 31 -40 46 -22 10 -40 22 -40 27 0 6 -4 8 -9 5 -5 -3 -12 1 -15 9
-3 8 -9 15 -13 14 -4 -1 -16 -1 -27 0 -15 1 -16 4 -6 16 15 18 16 17 -35 36
-28 10 -40 21 -40 34 0 17 -6 19 -38 17 -28 -3 -38 0 -36 10 4 35 -2 58 -17
58 -10 0 -14 6 -11 14 4 9 -3 16 -19 20 -23 6 -24 9 -18 59 4 28 13 61 20 72
14 21 15 85 2 85 -14 0 -8 20 12 40 20 20 28 46 10 35 -6 -4 -8 6 -6 23 4 36
13 52 30 52 8 0 13 8 12 17 0 10 9 22 21 28 17 7 21 15 16 34 -9 37 -36 62
-64 59 -19 -2 -24 2 -25 22 -2 57 -17 126 -31 142 -10 11 -11 18 -4 23 16 9
13 25 -4 25 -25 0 -112 100 -99 113 4 3 -7 9 -22 13 -16 4 -36 12 -44 20 -8 7
-27 15 -42 19 -17 5 -25 12 -21 21 3 8 -1 14 -10 14 -17 0 -30 27 -21 42 4 6
0 14 -7 19 -12 8 -11 12 3 23 10 7 18 18 18 25 0 6 4 11 8 11 15 0 29 65 21
88 -10 26 -69 55 -84 42 -6 -5 -17 -5 -25 0 -12 8 -11 17 6 67 16 46 17 63 8
80 -6 13 -14 20 -17 16 -4 -3 -7 1 -7 10 0 9 -5 17 -11 17 -33 0 -54 55 -30
78 29 28 71 62 76 62 3 0 18 14 35 31 16 18 30 28 31 23 1 -21 18 33 18 61 1
27 -4 33 -34 44 -19 7 -35 17 -35 22 0 5 -6 9 -14 9 -15 0 -16 36 0 61 6 10 0
9 -19 -3 -25 -17 -27 -17 -37 2 -6 11 -8 24 -5 29 8 15 -16 61 -33 61 -8 0
-12 6 -9 13 4 11 -7 13 -49 10 -34 -3 -54 0 -54 6 0 6 -7 11 -15 11 -8 0 -29
16 -46 35 -18 19 -39 35 -46 35 -10 0 -14 9 -12 28 2 18 -4 35 -19 50 -12 12
-22 31 -22 43 0 13 -4 18 -12 13 -7 -4 -8 -3 -4 5 4 6 -2 24 -13 40 -12 16
-21 37 -21 46 0 12 -5 15 -21 10 -24 -8 -60 20 -52 41 4 10 -3 14 -26 14 -17
0 -31 3 -31 8 0 4 -12 8 -26 9 -15 0 -29 5 -33 11 -3 5 -15 11 -26 13 -10 2
-22 14 -25 26 -3 13 -13 32 -22 43 -19 21 -23 40 -10 40 4 0 8 9 9 20 1 11 -2
20 -8 20 -5 0 -9 7 -9 15 0 8 -4 15 -10 15 -5 0 -10 5 -10 10 0 6 6 10 14 10
33 0 17 141 -17 146 -10 1 -17 -2 -17 -7 0 -14 -27 -11 -43 6 -9 8 -17 10 -19
5 -4 -12 -48 -1 -48 11 0 6 7 12 15 15 8 4 15 13 15 20 0 8 11 19 25 24 26 10
32 24 15 35 -5 3 -10 2 -10 -3 0 -5 -11 -7 -25 -4 -21 4 -23 7 -14 19 18 21
-3 38 -29 24 -11 -6 -32 -11 -46 -11 -14 0 -36 -10 -48 -22 -13 -13 -27 -22
-31 -20 -4 1 -18 -7 -30 -18 -19 -18 -23 -19 -33 -6 -6 8 -20 14 -31 13 -16
-1 -21 -7 -20 -26 1 -17 -4 -26 -15 -29 -11 -2 -18 3 -18 12 0 20 -19 20 -48
1 -17 -12 -26 -13 -42 -5 -11 6 -18 15 -15 20 3 4 -8 11 -25 15 -20 4 -30 13
-30 25 0 9 -7 23 -15 30 -8 7 -15 22 -15 35 0 19 -5 22 -37 21 -25 0 -37 4
-36 12 4 17 -7 15 -45 -8 -18 -11 -39 -20 -47 -20 -16 0 -56 35 -49 43 3 2
-13 0 -36 -6 -39 -11 -41 -11 -80 32 -31 33 -50 44 -80 48 -28 4 -40 10 -40
22 0 9 -7 27 -16 40 -14 19 -22 22 -55 17 -21 -3 -39 -2 -39 3 0 10 -51 2 -67
-11 -7 -5 -28 -8 -47 -7 -21 2 -42 -3 -53 -13 -35 -30 -60 -39 -67 -23 -3 8 2
18 11 23 36 21 -19 112 -67 112 -11 0 -20 -4 -20 -10 0 -5 -13 -7 -30 -3 -21
4 -36 0 -49 -11 -20 -18 -31 -11 -45 28 -3 10 -9 16 -12 13 -3 -2 -17 6 -31
19 l-26 24 -1293 0 -1294 0 0 -3912z m4255 3193 c-7 -24 -35 -29 -35 -6 0 13
31 38 38 30 2 -2 1 -13 -3 -24z m-2225 -841 c0 -12 -28 -25 -36 -17 -9 9 6 27
22 27 8 0 14 -5 14 -10z m-59 -54 c1 10 6 2 13 -19 12 -40 24 -38 39 6 9 25
30 21 25 -5 -4 -21 0 -23 46 -25 74 -4 98 -8 123 -21 17 -9 23 -9 27 1 4 6 4
2 2 -9 -2 -16 4 -25 22 -34 19 -8 28 -8 30 -1 6 18 30 12 37 -9 4 -11 15 -20
26 -20 18 0 22 -6 35 -48 3 -10 8 -10 23 0 16 10 25 9 45 -2 14 -7 26 -19 26
-25 0 -7 6 -18 14 -24 11 -10 16 -8 21 8 9 28 28 27 21 -1 -3 -13 -3 -17 0
-10 3 6 10 12 15 12 5 0 8 -6 7 -12 -3 -12 2 -13 60 -3 12 2 22 -1 22 -7 0 -5
9 -6 20 -3 14 4 22 1 26 -10 6 -13 8 -14 15 -3 7 10 9 10 9 1 0 -15 62 -18 88
-4 9 4 30 11 45 15 26 6 28 5 22 -15 -5 -15 -4 -19 4 -15 6 4 15 -3 20 -16 10
-24 11 -22 15 32 1 8 8 15 16 16 8 0 23 4 33 9 26 11 76 -14 83 -41 4 -15 16
-25 35 -29 36 -8 38 -25 4 -25 -14 0 -25 -4 -25 -10 0 -14 33 -13 48 2 9 9 12
9 12 -1 0 -7 5 -9 10 -6 6 3 10 13 10 21 0 8 -5 12 -10 9 -10 -6 -26 22 -18
31 13 13 58 -18 64 -43 9 -39 21 -51 55 -58 16 -4 34 -15 39 -26 11 -20 50
-26 50 -8 0 7 12 0 27 -15 18 -18 33 -25 47 -21 l21 6 -21 -13 c-16 -10 -19
-18 -13 -33 12 -32 11 -35 -22 -35 -43 0 -80 -41 -46 -53 6 -2 9 -8 5 -12 -4
-4 -14 0 -22 8 -13 12 -20 13 -41 4 -14 -7 -25 -20 -25 -30 0 -23 -26 -33 -45
-17 -13 11 -15 8 -15 -17 0 -17 -8 -40 -19 -51 -19 -23 -51 -30 -51 -12 0 6
-11 10 -25 10 -20 0 -25 -6 -31 -35 -3 -19 -10 -33 -14 -30 -5 3 -12 0 -16 -6
-4 -7 1 -16 11 -22 17 -9 16 -11 -6 -23 -13 -7 -32 -13 -41 -14 -10 0 -18 -5
-18 -11 0 -11 28 -9 63 6 14 6 17 2 17 -19 0 -14 -5 -26 -11 -26 -5 0 -7 5 -4
10 3 6 -3 10 -14 10 -12 0 -21 -4 -21 -10 0 -14 -38 -12 -54 2 -7 7 -11 20 -9
29 7 24 -14 33 -46 19 -24 -9 -34 -8 -64 9 l-35 19 -19 -21 c-11 -12 -25 -41
-33 -64 -11 -36 -16 -41 -38 -39 -24 3 -39 24 -48 64 -4 20 -9 23 -28 16 -12
-5 -14 -9 -6 -14 6 -4 -6 -6 -27 -4 -21 1 -39 3 -40 4 -2 1 -8 3 -13 4 -6 0
-15 8 -21 16 -8 11 -12 12 -15 3 -3 -7 -12 -9 -20 -6 -19 7 -18 -14 2 -25 12
-7 13 -11 5 -17 -17 -10 -44 3 -35 17 5 8 0 9 -14 6 -12 -4 -22 -2 -22 3 0 5
-7 9 -15 9 -8 0 -15 -9 -15 -20 0 -18 -26 -27 -62 -21 -5 0 -8 -6 -8 -14 0 -8
-7 -15 -15 -15 -8 0 -15 -4 -15 -10 0 -5 -7 -7 -16 -3 -14 5 -16 2 -11 -18 3
-14 0 -32 -10 -44 -15 -20 -15 -20 -8 3 5 16 2 22 -9 22 -25 0 -69 -20 -81
-37 -12 -16 -14 -16 -39 0 -14 10 -26 13 -26 8 0 -12 -32 -2 -42 13 -6 8 -11
7 -17 -3 -6 -9 -11 -10 -15 -2 -11 17 -56 14 -56 -4 0 -17 -26 -21 -32 -5 -5
16 -78 0 -78 -18 0 -12 -3 -12 -15 -2 -8 7 -24 10 -35 7 -18 -5 -64 5 -99 23
-16 7 -61 -10 -61 -22 0 -5 8 -8 17 -8 12 0 14 -3 7 -10 -14 -14 -134 -23
-134 -11 0 12 -78 12 -86 0 -7 -12 -74 -11 -74 1 0 5 -13 7 -30 4 -40 -8 -66
2 -51 20 8 10 8 23 -2 51 -10 30 -22 41 -53 53 -50 19 -49 19 -35 36 9 11 9
15 -1 19 -9 3 -6 12 12 32 14 16 20 25 14 22 -7 -4 -15 0 -18 9 -4 11 1 18 14
21 22 6 26 18 8 29 -8 5 -6 11 7 20 12 9 16 20 11 38 -4 15 -2 26 4 26 5 0 10
6 10 14 0 8 11 28 25 44 14 17 25 40 25 51 0 12 7 24 15 27 8 4 15 12 15 20 0
8 5 14 11 14 14 0 1 -60 -18 -82 -16 -18 -10 -38 10 -38 15 0 47 36 47 53 0 8
-4 7 -10 -3 -9 -13 -10 -13 -9 0 0 24 56 83 73 77 18 -7 29 16 14 31 -13 13
-2 32 18 32 8 0 14 7 14 15 0 8 5 15 10 15 6 0 10 -6 10 -14 0 -8 -4 -18 -10
-21 -5 -3 -10 -15 -10 -26 0 -27 34 -24 54 5 20 31 12 51 -25 68 -38 17 -44
36 -16 47 13 5 29 16 36 25 10 12 17 13 27 5 9 -7 21 -6 43 6 34 17 37 25 19
43 -9 9 -7 12 10 12 20 0 42 26 42 49 0 6 -9 11 -20 11 -26 0 -26 26 0 40 12
6 25 22 30 35 5 14 20 26 39 30 17 4 29 11 25 16 -5 9 28 14 74 11 13 0 22 5
22 13 0 10 9 13 28 11 17 -3 38 4 53 15 22 17 25 17 37 2 11 -15 12 -15 13 3z
m1036 -207 c-10 -14 -17 -17 -22 -9 -6 9 -9 9 -15 1 -5 -9 -10 -8 -19 3 -11
13 -7 18 26 33 43 21 55 9 30 -28z m-1447 -49 c0 -5 -4 -10 -10 -10 -5 0 -10
5 -10 10 0 6 5 10 10 10 6 0 10 -4 10 -10z m-128 -100 c-22 -20 -42 -26 -42
-12 0 15 24 32 44 32 19 0 19 -1 -2 -20z m-46 -36 c-3 -9 -6 -23 -6 -32 0 -10
-3 -13 -10 -6 -11 11 -2 54 12 54 6 0 7 -7 4 -16z m1924 -4 c0 -5 -2 -10 -4
-10 -3 0 -8 5 -11 10 -3 6 -1 10 4 10 6 0 11 -4 11 -10z m-1890 -44 c0 -3 -4
-8 -10 -11 -5 -3 -10 -1 -10 4 0 6 5 11 10 11 6 0 10 -2 10 -4z m2080 -76 c0
-5 -4 -10 -10 -10 -5 0 -10 5 -10 10 0 6 5 10 10 10 6 0 10 -4 10 -10z m-22
-38 c2 -7 -3 -12 -12 -12 -9 0 -16 7 -16 16 0 17 22 14 28 -4z m-58 -32 c0 -5
-4 -10 -10 -10 -5 0 -10 5 -10 10 0 6 5 10 10 10 6 0 10 -4 10 -10z m55 -57
c3 -9 1 -21 -4 -26 -10 -10 -11 -8 -25 37 -7 20 21 9 29 -11z m-247 -42 c-14
-23 -28 -28 -28 -10 0 12 32 40 38 34 2 -2 -3 -12 -10 -24z m162 -1 c0 -5 -4
-10 -10 -10 -5 0 -10 5 -10 10 0 6 5 10 10 10 6 0 10 -4 10 -10z m-82 -28 c6
-18 -15 -14 -22 4 -4 10 -1 14 6 12 6 -2 14 -10 16 -16z m146 -13 c-5 -9 -34
-13 -34 -5 0 2 3 12 6 20 5 13 9 14 20 5 8 -6 11 -15 8 -20z m-166 -10 c2 -12
-4 -15 -29 -11 -29 4 -31 3 -26 -17 3 -15 -1 -26 -16 -36 -18 -13 -19 -17 -8
-24 7 -5 10 -14 7 -20 -11 -18 -26 -13 -36 12 -6 15 -9 17 -9 6 -1 -21 -51
-33 -51 -13 0 8 -10 14 -23 14 -23 0 -47 17 -47 32 0 4 30 8 68 8 58 1 65 2
50 14 -10 7 -18 21 -18 31 0 16 2 16 25 1 24 -16 25 -15 25 3 0 16 7 19 42 18
30 -2 44 -7 46 -18z m180 -48 c10 -6 9 -10 -7 -14 -14 -3 -21 0 -21 9 0 16 9
18 28 5z m-88 -5 c0 -3 -4 -8 -10 -11 -5 -3 -10 -1 -10 4 0 6 5 11 10 11 6 0
10 -2 10 -4z m-80 -10 c0 -3 -4 -8 -10 -11 -5 -3 -10 -1 -10 4 0 6 5 11 10 11
6 0 10 -2 10 -4z m-493 -88 c-3 -8 -6 -5 -6 6 -1 11 2 17 5 13 3 -3 4 -12 1
-19z m263 7 c0 -8 -4 -15 -8 -15 -5 0 -9 7 -9 15 0 8 4 15 9 15 4 0 8 -7 8
-15z m-123 -46 c-14 -8 -22 -8 -30 0 -8 8 -3 11 19 11 25 -1 27 -2 11 -11z
m-627 -33 c0 -8 -10 -13 -25 -13 -25 0 -31 7 -18 20 12 12 43 7 43 -7z m-270
-76 c0 -5 -4 -10 -10 -10 -5 0 -10 5 -10 10 0 6 5 10 10 10 6 0 10 -4 10 -10z
m3250 -20 c0 -5 -4 -10 -10 -10 -5 0 -10 5 -10 10 0 6 5 10 10 10 6 0 10 -4
10 -10z m205 -1190 c3 -5 2 -10 -4 -10 -5 0 -13 5 -16 10 -3 6 -2 10 4 10 5 0
13 -4 16 -10z m-1487 -1445 c47 -25 50 -25 88 -9 33 14 44 14 74 3 19 -7 67
-13 106 -12 54 2 82 -3 110 -18 21 -10 51 -19 66 -19 15 0 28 -4 28 -10 0 -5
8 -10 18 -10 10 0 28 -7 40 -16 19 -13 26 -13 38 -3 13 10 17 10 24 0 4 -8 12
-11 18 -7 5 3 12 -1 15 -9 3 -7 23 -17 44 -21 21 -4 50 -15 65 -25 14 -11 31
-19 37 -19 6 0 16 -11 21 -25 5 -14 18 -28 27 -32 10 -4 21 -11 25 -17 4 -6
13 -11 20 -11 7 0 14 -9 16 -20 2 -11 9 -26 15 -33 6 -7 12 -25 13 -38 2 -14
8 -31 13 -38 8 -10 6 -20 -10 -40 -18 -23 -19 -27 -4 -32 13 -6 14 -9 3 -15
-11 -7 -10 -11 2 -19 10 -6 11 -10 3 -10 -7 0 -13 -5 -13 -11 0 -14 -40 -50
-49 -45 -32 20 -94 39 -130 41 -29 2 -49 9 -58 21 -12 16 -13 16 -13 1 0 -10
-8 -17 -19 -17 -25 0 -37 18 -22 33 15 15 14 27 -4 27 -8 0 -15 -4 -15 -10 0
-18 -25 -11 -52 15 -18 16 -41 26 -63 27 -19 1 -40 7 -46 15 -6 7 -18 13 -25
13 -8 0 -14 5 -14 10 0 6 -9 10 -20 10 -11 0 -20 5 -20 10 0 17 -22 11 -43
-12 l-20 -23 5 28 c6 31 -18 52 -46 41 -12 -5 -16 1 -16 22 0 22 -3 25 -10 14
-8 -13 -14 -13 -45 4 -19 11 -35 23 -35 28 0 5 -9 6 -20 3 -16 -5 -20 -2 -20
15 0 27 -37 59 -70 60 -40 1 -70 11 -70 25 0 8 -13 16 -28 20 -20 4 -32 15
-40 39 -7 19 -19 37 -27 40 -8 3 -15 12 -15 21 0 8 -5 15 -11 15 -11 0 -39 24
-39 34 0 3 13 6 29 6 17 0 32 4 35 9 10 15 84 2 134 -24z m-1698 -11 c0 -8 -9
-14 -20 -14 -19 0 -27 19 -14 33 10 9 34 -4 34 -19z m60 -14 c0 -5 -4 -10 -10
-10 -5 0 -10 5 -10 10 0 6 5 10 10 10 6 0 10 -4 10 -10z m460 -40 c0 -5 -4
-10 -10 -10 -5 0 -10 5 -10 10 0 6 5 10 10 10 6 0 10 -4 10 -10z m70 -30 c0
-17 5 -19 25 -14 25 6 30 -1 26 -33 -2 -15 15 -17 24 -3 3 6 17 8 29 6 17 -3
23 0 22 12 -1 11 8 18 27 20 15 2 27 -1 27 -7 0 -6 11 -11 25 -11 17 0 29 -8
35 -22 l9 -23 7 23 c3 12 9 22 13 22 10 0 8 -84 -2 -91 -14 -10 1 -29 24 -29
12 0 19 -7 19 -20 0 -11 6 -19 13 -17 18 3 10 -39 -14 -72 -13 -17 -18 -34
-14 -42 5 -8 4 -10 -4 -5 -11 7 -29 2 -104 -28 -15 -6 -25 -17 -22 -23 2 -7 0
-13 -5 -13 -6 0 -10 7 -10 15 0 21 -62 34 -156 32 -54 -1 -87 -7 -98 -16 -20
-16 -126 -25 -126 -10 0 5 -11 9 -25 9 -18 0 -23 4 -19 15 4 10 0 15 -15 15
-16 0 -21 6 -21 26 0 14 5 34 11 45 8 17 6 24 -10 38 -12 10 -21 30 -21 45 0
14 -4 26 -10 26 -5 0 -10 9 -10 19 0 11 -6 21 -12 23 -9 3 -8 9 4 21 10 10 39
18 79 21 34 3 65 10 69 15 3 6 27 14 53 17 39 6 47 4 47 -10 0 -20 16 -21 24
0 3 8 11 12 17 9 6 -4 13 2 16 14 7 29 53 30 53 1z m-1346 -76 c5 -13 9 -14
21 -4 17 14 61 9 58 -8 -2 -8 10 -12 33 -12 19 0 33 3 31 8 -3 4 8 7 24 7 22
0 31 -6 35 -22 3 -12 12 -27 20 -34 23 -19 16 -38 -18 -47 -19 -5 -35 -16 -38
-28 -7 -26 -33 -64 -43 -64 -13 0 -46 -43 -47 -60 0 -8 -18 -22 -39 -31 -30
-13 -40 -24 -46 -47 -6 -30 -6 -30 -66 -27 -32 2 -59 0 -59 -5 0 -5 -21 -19
-47 -31 -27 -12 -51 -26 -54 -32 -4 -5 -14 -7 -23 -4 -9 4 -35 -1 -58 -10 -38
-15 -42 -15 -54 1 -17 24 -35 11 -32 -22 2 -21 -2 -28 -19 -30 -13 -2 -23 1
-23 7 0 13 -37 15 -44 2 -3 -4 -16 -6 -29 -4 -15 3 -40 -6 -69 -26 -25 -17
-51 -31 -58 -31 -14 0 -40 25 -40 39 0 6 -9 11 -21 11 -15 0 -19 5 -15 15 4
11 -1 15 -18 15 -13 0 -26 7 -30 15 -3 8 0 14 6 12 7 -1 13 4 14 11 1 6 3 15
4 20 1 4 2 15 1 24 -1 9 7 22 18 28 12 6 21 20 21 30 0 11 5 20 10 20 6 0 10
5 10 10 0 16 52 59 71 60 9 0 19 7 23 15 3 8 10 15 17 15 6 0 18 9 27 20 10
11 30 23 47 26 16 3 34 9 40 14 5 4 27 7 49 5 29 -1 44 4 61 21 13 13 36 26
52 30 15 4 37 13 48 20 11 7 43 14 70 16 52 4 94 22 134 57 29 25 37 26 45 5z
m1147 -1180 c6 -8 26 -14 43 -14 24 0 27 3 16 10 -8 5 -10 10 -4 10 6 0 17 -7
24 -15 10 -12 10 -15 -4 -15 -9 0 -16 -5 -16 -10 0 -7 -27 -10 -72 -8 -64 3
-71 5 -74 24 -6 38 59 51 87 18z m756 -356 c-3 -8 -6 -5 -6 6 -1 11 2 17 5 13
3 -3 4 -12 1 -19z m-172 -26 c14 -24 14 -50 0 -56 -7 -2 -22 -25 -34 -50 -11
-25 -27 -46 -34 -46 -6 -1 -38 -3 -69 -6 -39 -4 -58 -2 -58 5 0 6 5 11 11 11
5 0 7 4 4 10 -6 9 0 18 31 53 6 7 15 28 19 45 3 18 11 32 16 32 6 0 8 4 5 9
-9 15 15 21 59 15 22 -3 44 -12 50 -22z m99 3 c-4 -8 -10 -12 -15 -9 -14 8
-10 24 6 24 9 0 12 -6 9 -15z m-457 -187 c-3 -8 -6 -5 -6 6 -1 11 2 17 5 13 3
-3 4 -12 1 -19z m358 -47 c3 -5 1 -12 -4 -15 -5 -3 -11 1 -15 9 -6 16 9 21 19
6z m2735 -51 c0 -5 -5 -10 -11 -10 -5 0 -7 5 -4 10 3 6 8 10 11 10 2 0 4 -4 4
-10z m-2840 -9 c-1 -14 -16 -26 -35 -25 -34 2 -36 4 -24 17 12 13 59 20 59 8z
m-610 -335 c6 -8 10 -25 8 -38 -4 -28 -36 -37 -44 -11 -3 10 -10 26 -15 35
-13 25 -12 28 15 28 13 0 29 -7 36 -14z m3620 -37 c36 -11 38 -15 42 -54 1
-24 1 -43 -2 -43 -25 1 -50 -18 -50 -38 0 -27 34 -34 44 -9 8 22 23 18 32 -7
11 -31 12 -68 2 -62 -4 3 -13 -7 -18 -21 -13 -35 -14 -35 16 -35 21 0 25 -4
21 -19 -3 -12 1 -22 9 -25 9 -3 14 -20 14 -45 0 -22 4 -42 9 -45 4 -3 6 -17 4
-30 -3 -14 2 -39 11 -57 9 -18 16 -38 16 -45 0 -7 4 -14 9 -16 4 -1 11 -28 15
-59 6 -43 4 -60 -8 -71 -9 -10 -11 -20 -5 -29 13 -21 11 -63 -6 -95 -8 -16
-15 -25 -15 -20 0 5 -6 3 -13 -3 -20 -16 -27 -3 -27 50 0 33 -4 49 -16 53 -25
10 -52 7 -61 -6 -4 -7 -23 -21 -41 -31 -27 -16 -33 -16 -38 -4 -3 9 2 30 11
47 11 22 14 41 9 59 -4 14 -8 74 -10 132 -1 59 -7 116 -13 127 -14 27 -14 32
4 32 17 0 17 50 0 62 -5 4 -11 54 -12 115 0 59 -2 113 -3 118 -1 6 -2 27 -1
48 1 41 9 44 71 26z m-587 -781 c-14 -28 -18 -30 -21 -14 -2 11 4 25 14 33 26
19 26 17 7 -19z m183 -42 c-6 -24 -15 -26 -48 -11 -23 9 -23 44 -1 60 25 18
58 -14 49 -49z m247 -6 c-3 -10 -11 -25 -19 -31 -11 -9 -14 -7 -14 13 0 27 7
38 26 38 7 0 10 -8 7 -20z m314 -72 c-15 -36 -81 -128 -100 -140 -16 -10 -37
11 -30 29 4 11 2 14 -5 9 -7 -4 -12 -3 -12 3 0 5 12 12 28 15 24 6 43 27 76
86 8 15 46 39 54 34 2 -1 -3 -17 -11 -36z m-696 6 c8 -9 21 -13 35 -10 19 5
26 -1 44 -39 21 -43 21 -45 3 -64 l-19 -21 -45 24 c-40 22 -47 23 -76 11 -18
-8 -35 -10 -38 -5 -7 12 5 63 17 71 5 3 10 16 11 27 1 17 8 22 28 22 15 0 32
-7 40 -16z m-151 -232 c0 -22 -20 -52 -35 -52 -4 0 -4 17 -1 38 3 20 6 45 7
56 0 18 0 18 14 0 8 -11 15 -29 15 -42z m260 27 c0 -13 -4 -18 -12 -13 -7 4
-10 4 -6 -1 12 -12 -12 -35 -36 -35 -16 0 -18 2 -7 9 7 5 11 13 7 19 -3 5 5
13 19 16 14 4 25 11 25 16 0 6 2 10 5 10 3 0 5 -9 5 -21z m415 -134 c-9 -36
-21 -65 -26 -65 -5 0 -9 -7 -9 -15 0 -8 -6 -15 -12 -15 -9 0 -10 -2 -2 -8 7
-4 8 -15 3 -27 -6 -17 -8 -17 -8 -2 -1 9 -8 17 -16 17 -11 0 -13 -8 -10 -32 5
-31 5 -31 -6 -10 -15 28 -43 25 -47 -5 -2 -14 -10 -21 -23 -20 -10 1 -19 6
-19 12 0 23 22 85 34 98 7 7 17 23 20 35 4 12 12 22 17 22 5 0 9 5 9 10 0 13
37 50 50 50 6 0 10 4 10 10 0 5 6 7 14 4 8 -3 17 0 21 6 17 27 17 -5 0 -65z
m-695 -78 c0 -13 5 -28 10 -33 16 -16 -16 -40 -33 -25 -8 6 -17 8 -21 4 -7 -7
-3 17 9 55 10 29 35 29 35 -1z m-5030 -70 c0 -31 -15 -51 -34 -44 -10 4 -16 1
-16 -8 0 -8 6 -15 14 -15 8 0 17 -8 19 -17 4 -16 6 -16 11 2 7 19 57 55 77 55
5 0 9 -7 9 -15 0 -8 5 -15 10 -15 6 0 10 -15 10 -32 0 -18 4 -49 8 -68 8 -35
-7 -87 -21 -73 -4 3 -7 -1 -7 -10 0 -9 -5 -17 -11 -17 -6 0 -9 -6 -6 -12 7
-20 -45 -152 -63 -163 -6 -4 -8 -10 -5 -15 3 -5 1 -11 -5 -15 -12 -7 -14 -55
-2 -56 4 0 15 -2 25 -4 9 -2 17 1 17 6 0 5 15 15 33 23 36 15 77 58 77 81 0
18 16 20 23 3 3 -7 6 -1 6 14 1 15 5 29 10 32 4 3 11 23 15 45 5 32 10 39 30
39 20 0 25 -7 30 -38 5 -30 10 -37 28 -37 70 -1 78 -3 78 -22 0 -10 -7 -24
-15 -31 -31 -26 -18 -44 31 -41 43 4 72 -16 76 -51 2 -25 8 -34 25 -36 12 -2
27 -10 33 -18 7 -8 20 -14 30 -14 9 0 27 -8 39 -19 20 -18 21 -25 17 -132 -3
-63 -5 -122 -6 -132 0 -11 -5 -15 -11 -11 -7 4 -10 1 -7 -7 8 -26 37 -22 44 5
3 14 13 26 21 26 8 0 17 9 20 20 7 26 30 26 38 -1 7 -22 -12 -79 -26 -79 -5 0
-9 -7 -9 -15 0 -8 -3 -15 -7 -15 -5 0 -13 -10 -19 -23 -52 -102 -78 -145 -99
-164 l-26 -23 21 -17 c24 -20 26 -43 5 -43 -8 0 -15 -5 -15 -10 0 -7 -6 -7
-20 0 -11 6 -20 18 -20 26 0 8 -4 12 -10 9 -5 -3 -10 -1 -10 5 0 7 -7 10 -15
6 -9 -3 -29 8 -50 29 -24 25 -50 38 -85 46 -45 10 -50 13 -50 38 0 14 -8 38
-17 51 -10 14 -15 26 -13 27 9 4 -30 43 -42 43 -10 0 -10 -2 0 -8 7 -5 10 -16
6 -25 -3 -10 -1 -24 6 -32 15 -18 6 -45 -14 -45 -9 0 -23 11 -32 25 -20 31
-10 85 17 92 25 7 24 15 -6 45 -24 25 -27 56 -6 82 25 31 9 113 -26 129 -22
10 -27 8 -44 -13 -11 -14 -30 -47 -43 -73 -21 -43 -25 -47 -39 -33 -9 9 -19
16 -23 16 -16 0 -52 43 -47 55 2 8 -7 30 -21 51 -14 21 -23 41 -20 46 3 4 -2
5 -10 2 -11 -4 -16 0 -16 14 0 11 -6 32 -14 46 -9 18 -11 39 -6 69 5 23 6 45
4 48 -4 8 27 111 36 119 3 3 12 21 20 40 8 19 19 38 24 42 8 5 8 13 0 25 -9
14 -8 21 6 33 22 20 32 51 21 69 -14 22 -61 -12 -61 -44 0 -14 -3 -25 -7 -25
-5 0 -23 -32 -42 -70 -18 -39 -37 -70 -42 -70 -14 0 -10 -33 6 -54 17 -22 20
-82 5 -91 -6 -3 -10 -23 -11 -43 0 -32 -1 -34 -9 -14 -5 12 -14 22 -19 22 -5
0 -16 14 -25 30 -8 17 -11 30 -6 30 4 0 8 10 8 23 0 12 2 32 5 45 7 25 -5 29
-25 9 -19 -19 -69 -27 -83 -13 -7 6 -17 21 -24 34 -6 12 -18 22 -26 22 -8 0
-15 9 -15 20 0 10 -9 24 -19 30 -16 8 -19 17 -14 48 5 28 18 49 56 84 59 54
108 69 138 42 18 -16 19 -15 38 27 30 66 52 89 112 115 l54 23 23 -25 c12 -14
22 -35 22 -47z m4816 -29 c4 -6 3 -8 -3 -5 -6 4 -13 0 -17 -8 -3 -8 -10 -15
-16 -15 -8 0 -8 6 0 20 12 22 25 26 36 8z m814 2 c0 -5 7 -10 15 -10 8 0 15 5
15 11 0 5 4 8 9 5 5 -3 7 -20 5 -38 -1 -18 -3 -51 -3 -72 -1 -39 -1 -39 -22
-20 -19 17 -19 19 -2 25 16 7 15 8 -4 8 -13 1 -23 6 -23 12 0 5 -4 7 -10 4 -5
-3 -10 -2 -10 3 0 6 7 13 16 16 15 6 15 8 0 31 -20 30 -20 35 -1 35 8 0 15 -4
15 -10z m-510 -56 c0 -2 -9 -4 -21 -4 -11 0 -18 4 -14 10 5 8 35 3 35 -6z
m-370 -40 c0 -14 -4 -23 -10 -19 -5 3 -10 1 -10 -6 0 -7 -2 -10 -5 -7 -6 6 12
58 20 58 3 0 5 -12 5 -26z m-4823 -36 c-3 -8 -6 -5 -6 6 -1 11 2 17 5 13 3 -3
4 -12 1 -19z m4809 -20 c4 -7 3 -8 -4 -4 -17 10 -34 -41 -26 -77 3 -16 2 -27
-3 -24 -4 3 -8 -21 -8 -53 0 -62 -10 -84 -25 -60 -12 19 -13 53 -1 46 4 -3 7
15 5 41 -3 44 14 101 37 130 14 16 16 16 25 1z m906 -80 c-7 -7 -12 -8 -12 -2
0 14 12 26 19 19 2 -3 -1 -11 -7 -17z m-1002 -173 c0 -19 -5 -35 -10 -35 -6 0
-8 11 -6 25 3 18 0 25 -10 25 -8 0 -12 5 -9 10 15 24 35 9 35 -25z m20 -73 c0
-25 -4 -29 -30 -29 -23 0 -27 3 -19 13 6 7 17 10 25 7 9 -3 14 2 14 16 0 12 2
21 5 21 3 0 5 -13 5 -28z m659 -89 c-3 -39 0 -48 14 -51 12 -3 21 6 28 27 12
33 33 39 62 17 17 -13 17 -15 -8 -40 -14 -14 -23 -26 -20 -26 4 0 -1 -7 -9
-15 -9 -9 -20 -24 -25 -33 -5 -9 -13 -14 -17 -10 -4 4 -2 13 4 20 8 11 2 13
-33 12 -24 -1 -48 -5 -54 -8 -5 -4 -17 6 -25 22 -18 35 -11 102 10 102 8 0 14
5 14 10 0 6 9 10 21 10 13 0 18 -5 14 -12 -3 -7 0 -5 7 5 19 25 20 22 17 -30z
m-29 -138 c0 -14 -4 -25 -10 -25 -5 0 -10 11 -10 25 0 14 5 25 10 25 6 0 10
-11 10 -25z m-387 -125 c-3 -12 -8 -19 -11 -16 -5 6 5 36 12 36 2 0 2 -9 -1
-20z m-4150 -109 c4 -1 12 -1 18 -1 6 0 8 -9 4 -20 -5 -15 -2 -20 14 -20 35 0
33 -18 -4 -30 -19 -6 -38 -9 -42 -7 -19 11 -54 -16 -72 -55 -10 -24 -19 -45
-19 -48 -1 -3 -9 -25 -19 -49 -15 -35 -25 -45 -44 -45 -22 -1 -24 2 -21 29 4
31 41 116 55 126 5 3 7 9 5 12 -7 12 73 87 94 87 9 0 9 3 0 12 -18 18 -14 30
6 19 9 -5 20 -9 25 -10z m3270 -112 c-4 -15 -8 -17 -14 -8 -6 11 4 28 18 29 0
0 -1 -9 -4 -21z m507 -3 c0 -2 -8 -10 -17 -17 -16 -13 -17 -12 -4 4 13 16 21
21 21 13z m-3740 -31 c0 -18 26 -20 33 -2 3 7 6 5 6 -6 1 -10 -9 -22 -21 -27
-14 -5 -17 -9 -8 -10 25 -1 -10 -20 -38 -20 -30 0 -38 24 -18 55 18 28 46 34
46 10z m3693 -35 c-3 -11 -9 -17 -15 -14 -5 3 -4 12 3 20 16 19 18 18 12 -6z
m-3936 -82 c-3 -8 -6 -5 -6 6 -1 11 2 17 5 13 3 -3 4 -12 1 -19z m3906 -8 c-3
-11 -9 -20 -14 -20 -5 0 -9 9 -9 20 0 11 6 20 14 20 9 0 12 -7 9 -20z m-3698
-64 c4 -32 13 -46 31 -46 8 0 14 -5 14 -12 0 -7 14 -26 30 -43 22 -23 34 -49
43 -94 7 -34 16 -58 20 -54 5 4 5 -1 1 -11 -5 -12 -4 -17 3 -13 7 4 8 -7 3
-36 -5 -23 -6 -46 -3 -51 3 -5 -14 -6 -40 -2 -26 4 -48 3 -51 -3 -3 -5 -15 -7
-26 -4 -16 4 -19 2 -14 -12 6 -14 4 -15 -12 -7 -10 6 -27 13 -38 16 -13 5 -16
11 -10 24 4 9 7 28 7 42 -1 13 7 35 18 48 10 14 19 31 19 38 0 7 5 25 12 41 6
15 12 34 14 41 2 12 -37 27 -67 25 -14 -1 -16 6 -12 40 6 52 35 119 47 107 5
-5 10 -20 11 -34z m3235 -275 c14 -26 13 -31 -6 -31 -8 0 -12 -5 -8 -11 12
-19 -16 -85 -37 -86 -15 -1 -19 5 -19 27 0 16 5 32 10 35 6 3 10 15 10 26 0
25 17 59 30 59 5 0 14 -9 20 -19z m-4294 -66 c-3 -8 -1 -14 3 -12 5 1 9 -1 10
-5 4 -27 -2 -30 -20 -9 -15 19 -17 26 -7 32 18 12 21 11 14 -6z m5455 -57 c0
-22 1 -22 8 -3 7 17 10 14 20 -18 7 -21 10 -41 7 -45 -13 -13 -119 -13 -128 0
-16 27 -9 48 18 48 14 0 23 4 19 10 -10 16 4 30 31 30 18 0 24 -6 25 -22z
m-117 -184 c9 -8 16 -21 16 -27 0 -6 -7 -2 -15 10 -10 14 -21 20 -32 16 -11
-4 -14 -3 -9 5 10 16 22 15 40 -4z m-108 -41 c-10 -10 -19 5 -10 18 6 11 8 11
12 0 2 -7 1 -15 -2 -18z m-6 -39 c0 -2 -9 -4 -21 -4 -11 0 -18 4 -14 10 5 8
35 3 35 -6z m-4880 -39 c0 -14 -4 -25 -10 -25 -5 0 -10 -8 -10 -17 0 -16 -1
-16 -16 -1 -15 15 -15 18 2 42 24 32 34 33 34 1z m-145 -55 c3 -5 3 -15 -1
-21 -6 -11 -23 6 -24 24 0 10 18 9 25 -3z m265 0 c0 -5 10 -10 23 -10 12 0 37
-9 55 -20 17 -11 32 -17 32 -13 0 3 9 -4 20 -17 11 -13 20 -32 20 -44 0 -12 5
-28 10 -36 9 -13 12 -13 20 2 6 10 18 14 30 11 12 -3 19 -8 16 -10 -3 -3 8
-17 24 -33 36 -36 50 -62 50 -98 l0 -30 -35 16 c-19 9 -35 20 -35 24 0 4 -12
8 -26 8 -46 0 -102 22 -107 41 -3 11 -12 19 -21 19 -10 0 -16 9 -16 25 0 17
-5 25 -18 25 -10 0 -22 4 -28 10 -5 5 -23 11 -39 14 -43 5 -66 16 -59 28 4 6
1 14 -6 18 -8 5 -10 17 -6 34 5 21 12 26 36 26 16 0 32 5 35 10 3 6 10 10 16
10 5 0 9 -4 9 -10z m5920 -10 c0 -5 -2 -10 -4 -10 -3 0 -8 5 -11 10 -3 6 -1
10 4 10 6 0 11 -4 11 -10z m-6 -65 c3 -8 14 -15 24 -15 26 0 30 -6 24 -36 -6
-30 -39 -51 -56 -34 -6 6 -11 14 -11 18 -1 4 -6 17 -13 29 -13 24 -7 53 13 53
7 0 15 -7 19 -15z m-1067 -111 c-3 -3 -12 -4 -19 -1 -8 3 -5 6 6 6 11 1 17 -2
13 -5z m81 -12 c2 -7 -2 -10 -12 -6 -9 3 -16 11 -16 16 0 13 23 5 28 -10z
m692 -32 c9 13 10 13 11 0 1 -8 1 -18 0 -23 -1 -4 12 -10 29 -14 17 -3 33 -10
36 -14 9 -16 -7 -49 -24 -49 -23 0 -76 46 -62 55 7 4 5 11 -5 21 -8 9 -15 21
-15 27 0 7 4 6 10 -3 9 -13 11 -13 20 0z m-250 -30 c0 -5 -4 -10 -10 -10 -5 0
-10 5 -10 10 0 6 5 10 10 10 6 0 10 -4 10 -10z m-4987 -44 c9 -13 24 -23 34
-22 14 1 19 -8 21 -36 2 -22 -1 -38 -7 -38 -6 0 -11 6 -11 14 0 8 -6 17 -12
19 -10 4 -9 8 2 17 12 9 10 11 -11 6 -30 -7 -65 24 -56 49 9 22 22 19 40 -9z
m2452 -36 c3 -5 -1 -10 -9 -10 -9 0 -16 5 -16 10 0 6 4 10 9 10 6 0 13 -4 16
-10z m2600 -11 c5 -5 0 -9 -14 -9 -14 0 -21 -5 -18 -12 2 -7 13 -12 23 -11 10
1 13 0 6 -3 -10 -5 -10 -9 -1 -20 9 -11 8 -14 -4 -14 -28 0 -47 12 -47 30 0
11 -5 22 -10 25 -8 5 -7 11 1 21 12 14 44 11 64 -7z m352 -21 c-3 -8 -6 -5 -6
6 -1 11 2 17 5 13 3 -3 4 -12 1 -19z m60 -28 c-3 -10 0 -21 7 -23 14 -5 7 -13
-21 -21 -20 -7 -23 -4 -23 23 0 20 6 31 18 34 9 3 19 5 21 6 2 0 1 -8 -2 -19z
m-412 -149 c3 -5 1 -12 -5 -16 -5 -3 -10 1 -10 9 0 18 6 21 15 7z m-458 -43
c-3 -8 -6 -5 -6 6 -1 11 2 17 5 13 3 -3 4 -12 1 -19z m383 -24 c0 -17 -22 -14
-28 4 -2 7 3 12 12 12 9 0 16 -7 16 -16z m260 -34 c4 0 10 -6 13 -14 5 -11 0
-12 -24 -3 -16 6 -29 15 -29 20 0 5 7 6 16 3 9 -3 19 -6 24 -6z m-172 -38 c2
-7 -3 -12 -12 -12 -9 0 -16 7 -16 16 0 17 22 14 28 -4z m226 -33 c-7 -12 -34
-11 -34 1 0 6 5 10 11 10 5 0 7 6 3 13 -5 8 -3 8 9 -2 9 -7 14 -17 11 -22z
m-354 -4 c0 -8 -4 -15 -10 -15 -5 0 -10 7 -10 15 0 8 5 15 10 15 6 0 10 -7 10
-15z m310 -126 c0 -6 -4 -7 -10 -4 -5 3 -10 11 -10 16 0 6 5 7 10 4 6 -3 10
-11 10 -16z m459 -185 c-31 -17 -39 -17 -39 0 0 8 10 16 23 18 34 6 42 -3 16
-18z m-1259 -44 c0 -5 -4 -10 -10 -10 -5 0 -10 5 -10 10 0 6 5 10 10 10 6 0
10 -4 10 -10z m518 -81 c-3 -20 -5 -19 -9 9 -3 20 -2 29 4 23 5 -5 7 -19 5
-32z m-668 -10 c0 -5 -7 -9 -15 -9 -15 0 -20 12 -9 23 8 8 24 -1 24 -14z m40
11 c0 -5 -5 -10 -11 -10 -5 0 -7 5 -4 10 3 6 8 10 11 10 2 0 4 -4 4 -10z
m1349 -33 c6 -8 8 -17 4 -20 -12 -13 -32 -7 -43 13 -9 17 -8 20 8 20 11 0 25
-6 31 -13z m-1239 -393 c0 -14 -3 -14 -15 -4 -8 7 -15 14 -15 16 0 2 7 4 15 4
8 0 15 -7 15 -16z"/>
<path d="M3020 10805 c-7 -9 -11 -18 -8 -20 3 -3 11 1 18 10 7 9 11 18 8 20
-3 3 -11 -1 -18 -10z"/>
<path d="M3150 10810 c0 -5 7 -10 15 -10 8 0 15 5 15 10 0 6 -7 10 -15 10 -8
0 -15 -4 -15 -10z"/>
<path d="M3090 10780 c0 -5 5 -10 11 -10 5 0 7 5 4 10 -3 6 -8 10 -11 10 -2 0
-4 -4 -4 -10z"/>
<path d="M3130 10780 c0 -5 9 -10 21 -10 11 0 17 5 14 10 -3 6 -13 10 -21 10
-8 0 -14 -4 -14 -10z"/>
<path d="M3180 10766 c0 -2 7 -9 15 -16 13 -11 14 -10 9 4 -5 14 -24 23 -24
12z"/>
<path d="M3345 10680 c-3 -5 -1 -10 4 -10 6 0 11 5 11 10 0 6 -2 10 -4 10 -3
0 -8 -4 -11 -10z"/>
<path d="M1417 10593 c-4 -3 -7 -13 -7 -21 0 -12 3 -12 15 -2 8 7 15 16 15 21
0 11 -14 12 -23 2z"/>
<path d="M1290 10549 c0 -5 -4 -7 -10 -4 -6 3 -7 -1 -4 -9 8 -22 21 -20 27 4
3 11 1 20 -4 20 -5 0 -9 -5 -9 -11z"/>
<path d="M3121 10538 c-1 -16 -5 -28 -11 -28 -5 0 -10 -4 -10 -10 0 -5 4 -10
10 -10 12 0 24 44 17 62 -3 7 -6 1 -6 -14z"/>
<path d="M1380 10540 c0 -5 5 -10 10 -10 6 0 10 5 10 10 0 6 -4 10 -10 10 -5
0 -10 -4 -10 -10z"/>
<path d="M3026 10481 c-4 -7 -5 -15 -2 -18 9 -9 19 4 14 18 -4 11 -6 11 -12 0z"/>
<path d="M1240 10360 c11 -20 30 -28 30 -12 0 11 -22 32 -32 32 -5 0 -4 -9 2
-20z"/>
<path d="M1210 10341 c0 -5 7 -12 16 -15 14 -5 15 -4 4 9 -14 17 -20 19 -20 6z"/>
<path d="M3136 10371 c-4 -7 -5 -15 -2 -18 9 -9 19 4 14 18 -4 11 -6 11 -12 0z"/>
<path d="M6218 4675 c-6 -30 18 -35 38 -7 19 25 17 32 -10 32 -17 0 -25 -7
-28 -25z"/>
<path d="M6236 4524 c-9 -22 -8 -24 9 -24 8 0 15 6 15 14 0 22 -17 28 -24 10z"/>
<path d="M6244 4079 c0 -13 3 -15 13 -7 7 6 13 12 13 13 0 2 -6 5 -13 8 -7 3
-13 -3 -13 -14z"/>
<path d="M357 3644 c-10 -11 3 -24 24 -24 10 0 19 7 19 15 0 15 -31 21 -43 9z"/>
<path d="M780 3030 c13 -9 13 -12 -2 -21 -22 -12 -24 -49 -3 -49 18 0 37 43
29 65 -4 8 -14 15 -23 15 -14 0 -14 -2 -1 -10z"/>
<path d="M843 2823 c-7 -21 -5 -38 7 -66 24 -53 35 -63 55 -47 27 22 -4 140
-36 140 -10 0 -21 -12 -26 -27z"/>
<path d="M5765 3040 c3 -5 8 -10 11 -10 2 0 4 5 4 10 0 6 -5 10 -11 10 -5 0
-7 -4 -4 -10z"/>
<path d="M1210 2330 c6 -11 15 -20 21 -20 6 0 6 7 -1 20 -6 11 -15 20 -21 20
-6 0 -6 -7 1 -20z"/>
<path d="M5368 9603 c7 -3 16 -2 19 1 4 3 -2 6 -13 5 -11 0 -14 -3 -6 -6z"/>
<path d="M5230 6484 c0 -24 39 -70 45 -53 7 22 0 50 -16 60 -21 13 -29 11 -29
-7z"/>
<path d="M5240 6399 c0 -5 5 -7 10 -4 6 3 10 8 10 11 0 2 -4 4 -10 4 -5 0 -10
-5 -10 -11z"/>
<path d="M5612 5635 c-11 -12 -10 -15 3 -15 8 0 15 7 15 15 0 18 -2 18 -18 0z"/>
<path d="M0 2388 c0 -29 15 -45 25 -28 3 5 -1 20 -9 32 l-16 22 0 -26z"/>
<path d="M6375 2319 c-8 -23 14 -54 22 -31 3 6 9 10 14 6 10 -6 12 7 3 30 -9
23 -31 20 -39 -5z"/>
<path d="M60 2263 c1 -18 18 -35 24 -24 4 6 4 16 1 21 -7 12 -25 13 -25 3z"/>
<path d="M6490 1865 c7 -9 15 -13 17 -11 7 7 -7 26 -19 26 -6 0 -6 -6 2 -15z"/>
<path d="M5673 1693 c-22 -8 -14 -23 13 -23 15 0 24 5 22 12 -5 14 -18 18 -35
11z"/>
<path d="M5667 1591 c4 -16 8 -17 18 -8 9 9 10 14 1 19 -19 13 -24 9 -19 -11z"/>
<path d="M5637 1486 c-9 -22 -1 -38 28 -59 22 -15 25 -16 25 -2 0 8 -4 15 -9
15 -5 0 -15 14 -23 31 -12 23 -17 27 -21 15z"/>
<path d="M5343 1437 c-24 -11 -29 -22 -14 -31 8 -6 48 31 40 38 -2 2 -14 -1
-26 -7z"/>
<path d="M5600 1412 c0 -11 7 -22 15 -26 9 -3 15 0 15 8 0 7 -7 19 -15 26 -12
10 -15 9 -15 -8z"/>
<path d="M5760 1398 c0 -37 26 -113 34 -100 4 7 5 16 2 21 -3 5 0 14 8 20 17
14 10 51 -12 69 -23 18 -32 15 -32 -10z"/>
<path d="M6694 1402 c-15 -10 -10 -97 6 -117 17 -20 25 -8 35 53 9 54 -11 85
-41 64z"/>
<path d="M5857 1368 c3 -18 10 -37 16 -43 7 -7 8 -4 3 8 -3 10 -6 30 -6 43 0
13 -4 24 -10 24 -5 0 -7 -14 -3 -32z"/>
<path d="M5386 1355 c4 -8 8 -15 10 -15 2 0 4 7 4 15 0 8 -4 15 -10 15 -5 0
-7 -7 -4 -15z"/>
<path d="M5520 1320 c0 -5 5 -10 11 -10 5 0 7 5 4 10 -3 6 -8 10 -11 10 -2 0
-4 -4 -4 -10z"/>
<path d="M5528 1283 c7 -3 16 -2 19 1 4 3 -2 6 -13 5 -11 0 -14 -3 -6 -6z"/>
<path d="M6791 1239 c-1 -32 -6 -49 -16 -53 -21 -8 -19 -30 7 -52 21 -19 21
-19 16 4 -5 16 -2 22 10 22 8 0 12 3 9 6 -3 4 -1 16 5 28 6 11 13 34 15 49 2
25 0 29 -17 24 -10 -3 -21 0 -24 7 -2 6 -5 -10 -5 -35z"/>
<path d="M5698 1083 c-24 -6 -23 -19 2 -26 15 -4 20 0 20 14 0 10 -1 18 -2 18
-2 -1 -11 -3 -20 -6z"/>
<path d="M5680 1020 c0 -5 11 -10 25 -10 14 0 25 5 25 10 0 6 -11 10 -25 10
-14 0 -25 -4 -25 -10z"/>
<path d="M5715 973 c11 -46 14 -53 25 -53 7 0 10 15 8 37 -2 27 -8 39 -21 41
-15 3 -17 -1 -12 -25z"/>
<path d="M5600 970 c0 -5 9 -10 20 -10 11 0 20 5 20 10 0 6 -9 10 -20 10 -11
0 -20 -4 -20 -10z"/>
<path d="M5690 945 c0 -8 5 -15 10 -15 6 0 10 7 10 15 0 8 -4 15 -10 15 -5 0
-10 -7 -10 -15z"/>
<path d="M5750 910 c-6 -11 -15 -18 -21 -15 -5 4 -13 -4 -18 -17 -7 -18 -5
-25 11 -30 25 -10 14 -28 -12 -21 -27 7 -49 -13 -43 -37 6 -22 28 -26 40 -7 9
14 40 35 64 43 10 3 16 18 17 37 2 63 -17 86 -38 47z"/>
<path d="M5908 803 c6 -2 18 -2 25 0 6 3 1 5 -13 5 -14 0 -19 -2 -12 -5z"/>
<path d="M6095 802 c-6 -4 -8 -20 -4 -37 5 -21 7 -24 8 -9 0 12 11 29 24 37
21 15 21 16 2 16 -11 1 -25 -3 -30 -7z"/>
<path d="M6180 774 c0 -8 5 -12 10 -9 6 4 8 11 5 16 -9 14 -15 11 -15 -7z"/>
<path d="M5856 755 c-3 -10 -2 -23 4 -29 15 -15 24 1 13 26 -9 20 -10 20 -17
3z"/>
<path d="M6000 721 c0 -5 9 -7 20 -4 11 3 20 7 20 9 0 2 -9 4 -20 4 -11 0 -20
-4 -20 -9z"/>
<path d="M6042 688 c3 -7 13 -15 22 -16 12 -3 17 1 14 10 -3 7 -13 15 -22 16
-12 3 -17 -1 -14 -10z"/>
<path d="M5570 665 c0 -8 5 -15 10 -15 6 0 10 7 10 15 0 8 -4 15 -10 15 -5 0
-10 -7 -10 -15z"/>
<path d="M5608 403 c7 -3 16 -2 19 1 4 3 -2 6 -13 5 -11 0 -14 -3 -6 -6z"/>
<path d="M5600 380 c0 -5 5 -10 10 -10 6 0 10 5 10 10 0 6 -4 10 -10 10 -5 0
-10 -4 -10 -10z"/>
<path d="M5657 360 c3 -11 9 -20 14 -20 5 0 9 9 9 20 0 11 -6 20 -14 20 -9 0
-12 -7 -9 -20z"/>
<path d="M5600 330 c0 -5 5 -10 11 -10 5 0 7 5 4 10 -3 6 -8 10 -11 10 -2 0
-4 -4 -4 -10z"/>
<path d="M5510 315 c0 -8 2 -15 4 -15 2 0 6 7 10 15 3 8 1 15 -4 15 -6 0 -10
-7 -10 -15z"/>
<path d="M6780 309 c0 -5 5 -7 10 -4 6 3 10 8 10 11 0 2 -4 4 -10 4 -5 0 -10
-5 -10 -11z"/>
<path d="M6642 273 c-30 -37 -28 -43 12 -43 31 0 34 3 38 35 5 44 -18 48 -50
8z"/>
<path d="M5540 275 c0 -8 9 -15 20 -15 11 0 20 7 20 15 0 8 -9 15 -20 15 -11
0 -20 -7 -20 -15z"/>
<path d="M6600 180 c0 -5 7 -10 15 -10 8 0 15 5 15 10 0 6 -7 10 -15 10 -8 0
-15 -4 -15 -10z"/>
<path d="M6640 180 c0 -5 5 -10 11 -10 5 0 7 5 4 10 -3 6 -8 10 -11 10 -2 0
-4 -4 -4 -10z"/>
<path d="M6610 150 c0 -5 5 -10 10 -10 6 0 10 5 10 10 0 6 -4 10 -10 10 -5 0
-10 -4 -10 -10z"/>
<path d="M6650 90 c0 -5 5 -10 10 -10 6 0 10 5 10 10 0 6 -4 10 -10 10 -5 0
-10 -4 -10 -10z"/>
<path d="M6718 83 c7 -3 16 -2 19 1 4 3 -2 6 -13 5 -11 0 -14 -3 -6 -6z"/>
<path d="M6717 50 c-25 -29 -22 -50 8 -50 25 0 33 14 15 25 -6 4 -8 15 -5 26
8 24 4 24 -18 -1z"/>
<path d="M6087 48 c-8 -26 5 -48 30 -48 17 0 23 4 20 14 -3 7 0 19 6 25 6 6 7
14 3 18 -4 4 -11 1 -15 -6 -6 -9 -11 -10 -15 -2 -9 15 -23 14 -29 -1z"/>
<path d="M5835 22 c-13 -14 -2 -22 30 -22 19 0 35 5 35 10 0 6 -3 10 -7 11 -5
0 -18 2 -31 3 -12 2 -24 0 -27 -2z"/>
</g>
</svg>
