<svg width="504" height="504" xmlns="http://www.w3.org/2000/svg">

 <g>
  <title>background</title>
  <rect fill="none" id="canvas_background" height="402" width="582" y="-1" x="-1"/>
 </g>
 <g>
  <title>Layer 1</title>
  <path id="svg_1" fill="#933EC5" d="m454.5,258.9c-9.2,58.5 -27.1,75.6 -58.8,114.9c-31.7,33.3 -77.3,88.9 -141.9,85.8c-58.5,-9.2 -75.6,-27.1 -114.9,-58.8c-33.3,-31.7 -88.9,-77.3 -85.8,-141.9c9.2,-58.5 27.1,-75.6 58.8,-114.9c31.7,-33.3 77.3,-88.9 141.9,-85.8c58.5,9.2 75.6,27.1 114.9,58.8c33.3,31.8 88.8,77.3 85.8,141.9z"/>
  <path id="svg_3" fill="#FFFFFF" d="m332.6,176.4c6.8,9.4 10.1,20.7 10.1,33.8c0,13.5 -3.4,24.4 -10.2,32.6c-3.8,4.6 -9.4,8.8 -16.9,12.6c11.3,4.1 19.8,10.6 25.6,19.5c5.7,8.9 8.6,19.7 8.6,32.4c0,13.1 -3.3,24.9 -9.8,35.3c-4.2,6.9 -9.4,12.7 -15.7,17.4c-7.1,5.4 -15.4,9.1 -25,11.1c-9.6,2 -20,3 -31.3,3l-99.7,0l0,-221.2l106.9,0c27,0.4 46.1,8.2 57.4,23.5zm-120.2,14.9l0,48.8l53.8,0c9.6,0 17.4,-1.8 23.4,-5.5c6,-3.7 9,-10.1 9,-19.4c0,-10.3 -4,-17.1 -11.9,-20.4c-6.8,-2.3 -15.6,-3.5 -26.1,-3.5l-48.2,0zm0,85.4l0,59l53.7,0c9.6,0 17.1,-1.3 22.4,-3.9c9.7,-4.8 14.5,-14 14.5,-27.6c0,-11.5 -4.7,-19.4 -14.1,-23.7c-5.2,-2.4 -12.6,-3.7 -22.1,-3.8l-54.4,0z"/>
 </g>
</svg>